<?xml version="1.0" encoding="UTF-8"?>
<svg id="Calque_2" data-name="Calque 2" xmlns="http://www.w3.org/2000/svg" viewBox="0 0 296.48 283.74">
  <defs>
    <style>
      .cls-1 {
        fill: #f9f19a;
      }

      .cls-2 {
        fill: #008280;
      }

      .cls-3 {
        fill: #f6ca00;
      }

      .cls-4 {
        fill: #fff;
      }

      .cls-5 {
        fill: #fecb39;
      }

      .cls-6 {
        fill: #c63;
      }

      .cls-7 {
        fill: #070806;
      }

      .cls-8 {
        fill: #61c1c5;
      }
    </style>
  </defs>
  <g id="PromoVerif">
    <g id="AdobeStock_393174229">
      <polygon class="cls-2" points="44.52 158.17 44.52 158.17 4.3 127.39 39.8 122.67 44.52 158.17"/>
      <path class="cls-3" d="m294.04,109.39c-14.68-50.23-91.47-70.21-171.51-44.63C42.49,90.35-10.49,151.82,4.2,202.05c12.25,41.91,67.74,62.75,132.27,53.65l63.24,28.04-10.68-41.75c72.49-27.83,118.86-85.2,105.01-132.59Z"/>
      <g>
        <path class="cls-7" d="m89.97,140.31c.13,1.24.06,2.41-.2,3.5-.26,1.1-.75,2.11-1.46,3.05-.71.94-1.69,1.76-2.93,2.47-1.24.71-2.76,1.27-4.56,1.69l-19.14,4.45-.82,14.54c1.47-.62,2.9-1.16,4.28-1.62,1.38-.46,2.73-.84,4.05-1.15,4.21-.98,8.01-1.17,11.37-.56,3.36.61,6.27,1.83,8.71,3.66,2.44,1.83,4.38,4.2,5.82,7.1,1.44,2.9,2.35,6.15,2.72,9.76.46,4.54.13,8.85-1.01,12.95-1.14,4.1-2.93,7.82-5.36,11.16-2.44,3.34-5.46,6.2-9.06,8.57-3.6,2.37-7.64,4.07-12.12,5.11-2.6.61-5.12.89-7.54.86-2.42-.03-4.72-.3-6.89-.81-2.17-.51-4.2-1.2-6.1-2.09-1.89-.89-3.63-1.9-5.21-3.05l4.52-8.67c.47-.9,1.05-1.64,1.74-2.22.69-.58,1.46-.96,2.3-1.16,1.1-.25,2.17-.18,3.2.24,1.04.41,2.17.86,3.4,1.35,1.23.49,2.65.86,4.25,1.12,1.6.26,3.54.13,5.81-.4,2.27-.53,4.17-1.38,5.71-2.55,1.53-1.17,2.73-2.56,3.6-4.17.87-1.61,1.43-3.39,1.71-5.34.27-1.95.3-3.97.08-6.06-.42-4.11-1.84-6.99-4.26-8.62-2.42-1.64-5.65-1.99-9.68-1.05-3.59.84-7.04,2.37-10.34,4.61l-10.87-.57,2.48-43.99,41.02-9.54.76,7.44Z"/>
        <path class="cls-7" d="m158.53,160.09c.76,7.41.66,14-.28,19.78-.95,5.78-2.57,10.76-4.86,14.95-2.29,4.19-5.17,7.57-8.64,10.17-3.47,2.59-7.33,4.38-11.58,5.37s-8.27,1.03-12.06.13c-3.79-.91-7.19-2.83-10.19-5.79-3-2.95-5.53-6.97-7.57-12.05-2.04-5.08-3.44-11.33-4.2-18.73-.76-7.41-.67-14,.26-19.77.93-5.77,2.53-10.75,4.81-14.93,2.27-4.18,5.13-7.55,8.56-10.12,3.43-2.56,7.28-4.34,11.53-5.33s8.29-1.04,12.12-.17c3.82.88,7.25,2.79,10.27,5.74,3.02,2.95,5.56,6.96,7.62,12.04,2.06,5.08,3.47,11.32,4.22,18.73Zm-17.6,4.09c-.6-5.85-1.44-10.57-2.52-14.15-1.08-3.58-2.3-6.3-3.68-8.17-1.37-1.86-2.83-3.02-4.38-3.48-1.55-.45-3.07-.5-4.58-.16s-2.94,1.09-4.3,2.22c-1.37,1.13-2.5,2.89-3.4,5.29-.9,2.39-1.5,5.54-1.79,9.44-.3,3.9-.14,8.78.46,14.63.6,5.89,1.43,10.62,2.49,14.19,1.06,3.56,2.26,6.29,3.6,8.18,1.34,1.89,2.77,3.07,4.3,3.52s3.05.51,4.55.16,2.95-1.09,4.33-2.23c1.38-1.14,2.54-2.92,3.48-5.33s1.56-5.57,1.87-9.46c.32-3.88.17-8.77-.43-14.67Z"/>
      </g>
      <path class="cls-4" d="m181.23,179.59c.11,1.08.03,2.11-.25,3.08-.28.98-.69,1.86-1.24,2.64-.55.78-1.21,1.45-1.98,1.98-.77.54-1.6.91-2.48,1.12-.97.23-1.88.26-2.72.09-.85-.16-1.6-.49-2.26-1-.66-.5-1.2-1.16-1.62-1.97-.42-.81-.69-1.76-.8-2.84-.11-1.12-.05-2.17.19-3.16.24-.99.62-1.87,1.15-2.66.53-.79,1.18-1.45,1.95-2,.77-.55,1.64-.93,2.61-1.16.97-.23,1.88-.25,2.74-.09s1.62.5,2.28,1.01c.66.51,1.2,1.18,1.63,2.02.42.83.69,1.81.81,2.93Zm8.13-8.25c.17-.27.38-.54.64-.8.26-.26.64-.45,1.14-.56l4.32-1.01-18.08,33.48c-.16.3-.38.57-.65.8-.27.24-.61.4-1.02.5l-4.44,1.03,18.09-33.44Zm-12.68,9.31c-.07-.69-.18-1.25-.34-1.67-.16-.43-.34-.75-.56-.98-.22-.23-.46-.36-.74-.41-.27-.05-.56-.03-.87.04-.31.07-.58.19-.83.36-.24.17-.44.41-.59.72-.15.31-.25.71-.31,1.18s-.05,1.06.02,1.75c.07.65.17,1.18.32,1.58s.32.72.53.93.44.35.71.39c.27.05.55.04.86-.03s.58-.19.83-.36c.25-.17.46-.4.62-.7.17-.3.28-.68.34-1.14.06-.46.06-1.01,0-1.66Zm22.17,10.63c.11,1.08.03,2.11-.25,3.09-.28.98-.69,1.87-1.24,2.65-.55.78-1.21,1.44-1.98,1.98-.77.54-1.6.91-2.48,1.12-.97.23-1.88.26-2.72.09-.85-.16-1.6-.5-2.26-1-.66-.5-1.2-1.16-1.62-1.98-.42-.82-.69-1.77-.8-2.85-.11-1.12-.05-2.17.19-3.16.24-.99.62-1.88,1.15-2.66.53-.79,1.18-1.45,1.95-2,.77-.55,1.64-.93,2.61-1.16.97-.23,1.88-.25,2.74-.09.86.17,1.62.5,2.28,1.01.66.51,1.2,1.18,1.63,2.01.42.83.69,1.81.81,2.93Zm-4.55,1.06c-.07-.67-.18-1.22-.34-1.65-.15-.43-.34-.75-.56-.98-.22-.23-.47-.36-.74-.41-.27-.05-.56-.04-.87.04-.31.07-.58.19-.83.36-.24.17-.44.41-.59.72-.15.31-.25.7-.31,1.18-.06.48-.05,1.05.02,1.72.07.65.17,1.18.32,1.58.15.41.32.72.53.93.21.21.44.35.71.4.27.05.55.04.86-.04.31-.07.58-.19.84-.36.25-.17.46-.4.62-.7.17-.3.28-.68.34-1.14.06-.46.06-1.01,0-1.66Z"/>
      <polygon class="cls-8" points="236.75 64.54 3.63 128.36 0 84.1 252.43 0 236.75 64.54"/>
      <g>
        <path class="cls-7" d="m29.93,98.6l1.11,7.52-3.87,1.07-3.15-21.37,6.78-1.87c1.39-.38,2.62-.55,3.69-.49,1.07.05,1.98.29,2.73.71.75.42,1.35,1,1.79,1.75.44.75.73,1.62.88,2.62.15,1.03.12,2.03-.08,2.98-.21.96-.6,1.84-1.18,2.64-.58.81-1.35,1.52-2.31,2.14-.96.62-2.11,1.12-3.47,1.49l-2.91.8Zm-.46-3.1l2.91-.8c.71-.2,1.32-.46,1.82-.79.5-.33.9-.71,1.2-1.14.3-.43.49-.92.59-1.46.1-.54.11-1.1.02-1.7-.08-.57-.25-1.06-.49-1.48-.24-.42-.56-.74-.95-.97s-.87-.36-1.42-.39c-.55-.03-1.19.06-1.9.25l-2.91.8,1.13,7.67Z"/>
        <path class="cls-7" d="m49.25,92.42l1.23,8.35-3.87,1.07-3.15-21.37,6.35-1.75c1.42-.39,2.66-.58,3.72-.55,1.06.02,1.95.21,2.68.58.73.36,1.3.88,1.71,1.55.41.67.69,1.46.82,2.37.11.72.1,1.43,0,2.12-.11.7-.32,1.36-.64,1.99-.31.63-.72,1.22-1.24,1.77s-1.12,1.05-1.81,1.48c.53.15,1.01.44,1.45.88l6.38,6.46-3.48.96c-.34.09-.63.1-.89.03-.26-.07-.48-.22-.68-.43l-5.39-5.64c-.2-.21-.41-.34-.62-.4-.21-.05-.51-.03-.9.08l-1.66.46Zm-.42-2.85l2.42-.67c.73-.2,1.35-.47,1.87-.81.51-.34.92-.72,1.22-1.15.3-.42.51-.89.61-1.39.11-.5.12-1.02.04-1.56-.16-1.08-.63-1.82-1.41-2.21-.78-.39-1.89-.39-3.32,0l-2.48.68,1.05,7.09Z"/>
        <path class="cls-7" d="m84.49,80.29c.23,1.57.19,3.09-.12,4.56-.31,1.48-.86,2.83-1.63,4.06-.78,1.23-1.77,2.29-2.99,3.2-1.22.9-2.61,1.57-4.18,2-1.58.43-3.05.56-4.43.37-1.38-.19-2.61-.64-3.68-1.36-1.07-.72-1.96-1.68-2.66-2.87s-1.17-2.58-1.41-4.14c-.23-1.57-.19-3.09.12-4.56.31-1.47.86-2.83,1.64-4.06.78-1.23,1.78-2.3,3-3.2,1.22-.9,2.62-1.57,4.19-2.01,1.57-.43,3.05-.55,4.43-.36,1.38.19,2.6.65,3.66,1.37,1.06.72,1.95,1.67,2.66,2.87.71,1.2,1.17,2.58,1.41,4.14Zm-3.97,1.09c-.17-1.17-.48-2.18-.92-3.03-.44-.85-.99-1.52-1.65-2.01-.66-.5-1.42-.8-2.29-.92-.86-.12-1.8-.04-2.82.24-1.02.28-1.91.71-2.67,1.28-.77.57-1.39,1.26-1.86,2.07-.48.81-.8,1.72-.97,2.73-.17,1.02-.17,2.11,0,3.28.17,1.17.48,2.18.93,3.03.44.85,1,1.51,1.67,2,.67.49,1.43.79,2.3.91.87.12,1.81.04,2.83-.24,1.02-.28,1.91-.7,2.67-1.27.76-.57,1.38-1.25,1.85-2.05.47-.8.79-1.71.95-2.72.17-1.01.16-2.11-.01-3.28Z"/>
        <path class="cls-7" d="m100.3,78.85c.19.3.38.61.56.91.08-.39.17-.78.26-1.16s.2-.76.31-1.12l4.42-13.53c.05-.17.12-.31.19-.42.07-.11.15-.2.24-.27.1-.07.2-.12.33-.17.12-.04.27-.09.44-.14l2.92-.81,3.15,21.37-3.41.94-2.04-13.8c-.04-.26-.07-.54-.1-.85-.03-.31-.05-.62-.07-.95l-4.51,13.85c-.1.32-.26.58-.47.8-.21.22-.47.37-.77.45l-.53.15c-.31.08-.59.08-.84,0-.25-.09-.47-.25-.66-.49l-8.17-10.4c.09.31.16.62.22.93.06.31.11.59.15.86l2.04,13.8-3.41.94-3.15-21.37,2.92-.8c.17-.05.32-.08.45-.11.12-.02.24-.03.35-.02.11.01.21.05.31.12.1.07.2.16.3.29l7.97,10.15c.21.27.41.56.6.86Z"/>
        <path class="cls-7" d="m137.18,65.79c.23,1.57.19,3.09-.12,4.56-.31,1.47-.86,2.83-1.63,4.06-.78,1.23-1.77,2.29-2.99,3.2-1.22.9-2.61,1.57-4.18,2.01-1.58.43-3.05.56-4.43.37-1.38-.19-2.61-.64-3.68-1.36-1.07-.72-1.96-1.68-2.66-2.87-.71-1.2-1.17-2.58-1.41-4.14-.23-1.57-.19-3.09.12-4.56.31-1.47.86-2.83,1.64-4.06.78-1.23,1.78-2.3,3-3.2,1.22-.91,2.62-1.57,4.19-2.01,1.57-.43,3.05-.55,4.43-.36,1.38.2,2.6.65,3.66,1.37,1.06.72,1.95,1.67,2.66,2.87.71,1.19,1.17,2.58,1.4,4.14Zm-3.97,1.09c-.17-1.17-.48-2.18-.92-3.03-.44-.85-.99-1.52-1.65-2.01-.66-.49-1.42-.8-2.29-.92-.86-.12-1.8-.04-2.82.24-1.02.28-1.91.71-2.67,1.27-.77.57-1.39,1.26-1.86,2.07-.48.81-.8,1.72-.97,2.73-.17,1.02-.17,2.11,0,3.28.17,1.17.48,2.18.93,3.03.44.85,1,1.51,1.67,2,.67.49,1.43.79,2.3.91.87.12,1.81.04,2.83-.24,1.02-.28,1.91-.7,2.67-1.27s1.38-1.25,1.85-2.05.79-1.71.95-2.72c.17-1.01.16-2.11-.01-3.28Z"/>
        <path class="cls-7" d="m153.65,50.14l.48,3.27-6.26,1.72,2.67,18.1-3.87,1.07-2.67-18.1-6.29,1.73-.48-3.27,16.43-4.52Z"/>
        <path class="cls-7" d="m165.07,69.23l-3.89,1.07-3.15-21.37,3.89-1.07,3.15,21.37Z"/>
        <path class="cls-7" d="m189.58,51.36c.23,1.57.19,3.09-.12,4.56-.31,1.48-.86,2.83-1.63,4.06-.78,1.23-1.77,2.3-2.99,3.2-1.22.9-2.61,1.57-4.19,2.01s-3.05.56-4.43.37c-1.38-.19-2.61-.64-3.68-1.36-1.07-.72-1.96-1.68-2.66-2.87-.71-1.19-1.17-2.58-1.41-4.14-.23-1.57-.19-3.09.12-4.56.31-1.47.86-2.83,1.64-4.06.78-1.23,1.78-2.3,3-3.2,1.22-.91,2.62-1.57,4.19-2.01s3.05-.55,4.43-.36c1.38.2,2.6.65,3.66,1.37,1.06.72,1.95,1.67,2.66,2.87.71,1.2,1.17,2.58,1.4,4.14Zm-3.97,1.09c-.17-1.17-.48-2.18-.92-3.03-.44-.85-.99-1.52-1.65-2.01-.66-.49-1.42-.8-2.29-.92-.86-.12-1.8-.04-2.82.24s-1.91.71-2.67,1.27c-.77.57-1.39,1.26-1.86,2.07s-.8,1.72-.97,2.73c-.17,1.02-.17,2.11,0,3.28.17,1.17.48,2.18.93,3.03.44.85,1,1.51,1.67,2,.67.49,1.43.79,2.3.91.87.12,1.81.04,2.83-.24s1.91-.71,2.67-1.27c.76-.57,1.38-1.25,1.85-2.05s.79-1.71.95-2.72c.17-1.02.16-2.11-.01-3.28Z"/>
        <path class="cls-7" d="m194.97,38.79c.12-.02.22-.02.32,0,.1.02.2.06.29.12.1.06.21.14.34.25l13.04,11.28c-.09-.33-.17-.67-.23-.99-.06-.33-.12-.63-.16-.92l-1.92-12.99,3.41-.94,3.15,21.37-2,.55c-.31.08-.57.11-.79.06-.22-.04-.44-.17-.67-.37l-12.99-11.23c.08.31.14.61.2.92.06.31.11.59.15.84l1.94,13.12-3.41.94-3.15-21.37,2.03-.56c.17-.05.32-.08.44-.1Z"/>
      </g>
    </g>
    <g id="AdobeStock_552027463">
      <ellipse class="cls-6" cx="239.76" cy="133.07" rx="42.72" ry="44.03"/>
      <path class="cls-5" d="m237.46,177c23.29-1.53,41.71-20.91,41.71-44.59,0-15.21-7.6-28.64-19.2-36.71-13.53-9.41-31.49-9.41-45.02,0-11.6,8.07-19.2,21.51-19.2,36.71,0,23.68,18.42,43.06,41.71,44.59Z"/>
      <path class="cls-1" d="m237.46,166.58c.5,0,1-.01,1.49-.03-18.18-.78-32.69-15.77-32.69-34.14s14.5-33.36,32.69-34.14c-.49-.02-.99-.03-1.49-.03-18.88,0-34.18,15.3-34.18,34.18s15.3,34.18,34.18,34.18Z"/>
      <path class="cls-6" d="m267.03,132.41c0,18.1-14.07,32.92-31.88,34.1.76.05,1.53.08,2.3.08,18.88,0,34.18-15.3,34.18-34.18s-15.3-34.18-34.18-34.18c-.77,0-1.54.03-2.3.08,17.8,1.18,31.88,16,31.88,34.1Z"/>
      <polygon class="cls-1" points="254.38 102.7 250.87 100.96 257.76 94.08 260.8 96.28 254.38 102.7"/>
      <g>
        <g>
          <path class="cls-6" d="m240.26,147.74l.2,3.94-1.39.07-1.64.08-2.25.11-.18-3.45c-3.32,0-6.93-.96-8.77-2.16l.72-2.34h0s.04.01.07.03c.94.55,2.16.77,3.51.85.65.04,1.33.05,2.03.04.39,0,.78,0,1.18-.02h0c.53,0,1.07-.02,1.6-.02.06,0,.13,0,.19,0,4.43-.07,7.01-2.41,7.01-5.78,0-3.16-1.84-4.97-6.49-6.73-4.93-1.72-8.21-4.13-8.94-7.92-.1-.53-.16-1.09-.16-1.67,0-4.53,3.28-8.06,8.45-8.97v-3.79h4.91v3.67c.95.1,1.81.26,2.58.46,1.16.3,2.1.69,2.82,1.09l-1.23,3.57c-.33-.18-.77-.39-1.3-.6-.54-.22-1.17-.43-1.89-.6-.05-.01-.11-.03-.16-.04-.06-.01-.12-.03-.19-.04-.89-.19-1.9-.32-3.01-.32-4.7,0-6.49,2.76-6.49,5.07,0,3.16,2.1,4.72,6.85,6.53,5.83,2.21,8.79,4.97,8.79,9.95,0,3.94-2.24,7.49-6.84,8.99Z"/>
          <path class="cls-1" d="m237.24,147.89l.2,3.94v.07s-3.63.18-3.63.18l-1.64.08-.18-3.51c-3.32,0-6.93-.97-8.77-2.2l1.12-3.73c.43.27.91.52,1.41.76.38.18.78.35,1.2.5.02,0,.05.02.07.03,1.08.39,2.27.7,3.51.85.58.07,1.18.11,1.78.11.27,0,.53,0,.79-.03.22-.01.43-.03.63-.06h0c3.67-.45,5.78-2.7,5.78-5.79s-1.84-5.06-6.49-6.85c-3.82-1.35-6.65-3.13-8.07-5.66-.67-1.19-1.03-2.55-1.03-4.11,0-.19,0-.38.02-.56.25-4.34,3.48-7.68,8.43-8.56v-3.85h4.91v3.74c.31.03.61.07.9.12,1.96.3,3.46.87,4.5,1.45l-1.39,2.78-.02.04s0,0,0,0c-.05-.02-.09-.05-.14-.07-.58-.28-1.39-.47-2.44-.58-.76-.08-1.63-.13-2.63-.15-.37,0-.75-.01-1.15-.01-.06,0-.12,0-.18,0-4.57.07-6.31,2.84-6.31,5.16,0,.38.03.73.09,1.06.44,2.53,2.56,3.96,6.76,5.58,5.83,2.25,8.79,5.06,8.79,10.12,0,4.01-2.24,7.62-6.84,9.14Z"/>
          <path class="cls-5" d="m238.88,147.89l.19,3.86v.15s-5.27.27-5.27.27v-.08s-.18-3.42-.18-3.42c-3.32,0-6.93-.97-8.77-2.2l.9-2.97.23-.76c1.69,1.04,4.04,1.93,6.58,2.18.18.02.36.03.54.04.28.02.57.03.85.03.55,0,1.08-.04,1.57-.1,3.58-.49,5.64-2.72,5.64-5.77,0-3.22-1.84-5.06-6.49-6.85-4.36-1.55-7.43-3.65-8.59-6.78-.33-.9-.51-1.9-.51-2.98,0-.89.12-1.74.36-2.55.81-2.77,2.96-4.95,6.04-6.04.65-.23,1.33-.41,2.05-.54v-3.85h4.91v3.74c.48.05.94.12,1.38.2.98.18,1.84.43,2.58.7.55.21,1.03.44,1.44.67l-1.14,3.38-.08.25c-.44-.24-1.05-.54-1.82-.82,0,0,0,0,0,0-.11-.04-.22-.08-.33-.12-.65-.22-1.41-.41-2.25-.54-.66-.1-1.38-.16-2.14-.16-.17,0-.33,0-.49.01-.55.02-1.06.09-1.53.19-2.93.62-4.24,2.6-4.44,4.44-.02.18-.03.35-.03.52,0,3.22,2.1,4.8,6.85,6.64,5.83,2.25,8.79,5.06,8.79,10.12,0,4.01-2.24,7.62-6.84,9.14Z"/>
        </g>
        <polygon class="cls-1" points="240.29 117.4 235.83 116.93 239.76 113.36 242.9 114.15 240.29 117.4"/>
        <polygon class="cls-1" points="230.18 130.15 227.21 128.07 230.7 124.57 232.93 126.73 230.18 130.15"/>
      </g>
      <polygon class="cls-1" points="204.16 158.51 201.86 155.24 208.07 149.35 210.09 152.58 204.16 158.51"/>
    </g>
  </g>
</svg>